if (_typeface_js && _typeface_js.loadFace) _typeface_js.loadFace({"glyphs":{"0":{"ha":654,"x_min":34,"x_max":615,"o":"m 615 135 l 469 0 l 34 0 l 34 846 l 180 981 l 615 981 l 615 135 m 240 794 l 240 186 l 410 186 l 410 794 l 240 794 z "},"1":{"ha":444,"x_min":37,"x_max":396,"o":"m 64 720 l 37 845 l 191 980 l 191 981 l 396 981 l 396 0 l 191 0 l 191 720 l 64 720 z "},"2":{"ha":627,"x_min":34,"x_max":581,"o":"m 581 0 l 34 0 l 34 334 l 376 644 l 376 794 l 240 794 l 240 689 l 44 689 l 44 845 l 180 981 l 581 981 l 581 568 l 240 264 l 240 186 l 581 186 l 581 0 z "},"3":{"ha":662,"x_min":34,"x_max":615,"o":"m 615 497 l 615 136 l 479 0 l 34 0 l 34 315 l 234 315 l 234 186 l 410 186 l 410 406 l 319 406 l 319 593 l 410 593 l 410 796 l 234 796 l 234 675 l 34 675 l 34 846 l 180 981 l 599 981 l 599 593 l 488 497 l 615 497 z "},"4":{"ha":714,"x_min":39,"x_max":675,"o":"m 389 0 l 389 185 l 154 185 l 39 367 l 370 981 l 451 981 l 587 845 l 587 366 l 675 366 l 675 195 l 587 195 l 587 0 l 389 0 m 233 356 l 389 356 l 389 683 l 233 356 z "},"5":{"ha":627,"x_min":34,"x_max":581,"o":"m 253 612 l 435 612 l 581 476 l 581 0 l 180 0 l 34 135 l 34 298 l 234 298 l 234 187 l 376 187 l 376 424 l 51 424 l 51 981 l 554 981 l 554 794 l 253 794 l 253 612 z "},"6":{"ha":621,"x_min":34,"x_max":581,"o":"m 381 689 l 381 794 l 241 794 l 241 587 l 581 587 l 581 135 l 435 0 l 34 0 l 34 846 l 180 981 l 581 981 l 581 689 l 381 689 m 241 186 l 375 186 l 375 399 l 241 399 l 241 186 z "},"7":{"ha":642,"x_min":34,"x_max":601,"o":"m 214 794 l 214 689 l 34 689 l 34 981 l 460 981 l 601 823 l 308 0 l 97 0 l 391 794 l 214 794 z "},"8":{"ha":648,"x_min":34,"x_max":601,"o":"m 404 582 l 404 794 l 235 794 l 235 582 l 404 582 m 235 186 l 404 186 l 404 406 l 235 406 l 235 186 m 50 501 l 50 845 l 186 981 l 585 981 l 585 607 l 468 501 l 601 501 l 601 136 l 465 0 l 34 0 l 34 401 l 168 501 l 50 501 z "},"9":{"ha":615,"x_min":34,"x_max":583,"o":"m 34 845 l 193 981 l 583 981 l 583 136 l 448 0 l 34 0 l 34 305 l 234 305 l 234 186 l 376 186 l 376 400 l 34 400 l 34 845 m 240 589 l 376 589 l 376 794 l 240 794 l 240 589 z "},"\"":{"ha":491,"x_min":34,"x_max":463,"o":"m 34 686 l 34 1082 l 208 1082 l 208 686 l 34 686 m 289 686 l 289 1082 l 463 1082 l 463 686 l 289 686 z "},"#":{"ha":938,"x_min":31,"x_max":916,"o":"m 727 705 l 916 705 l 899 571 l 713 571 l 695 410 l 888 410 l 873 277 l 680 277 l 648 0 l 502 0 l 532 277 l 370 277 l 338 0 l 192 0 l 222 277 l 31 277 l 49 410 l 237 410 l 256 571 l 56 571 l 73 705 l 271 705 l 302 981 l 449 981 l 419 705 l 580 705 l 611 981 l 758 981 l 727 705 m 549 408 l 568 571 l 401 571 l 382 408 l 549 408 z "},"$":{"ha":605,"x_min":34,"x_max":573,"o":"m 227 1083 l 389 1083 l 389 981 l 567 981 l 567 689 l 380 689 l 380 793 l 246 793 l 246 665 l 573 420 l 573 0 l 381 0 l 381 -102 l 218 -102 l 218 0 l 34 0 l 34 305 l 239 305 l 239 186 l 367 186 l 367 342 l 41 588 l 41 981 l 227 981 l 227 1083 z "},"%":{"ha":974,"x_min":34,"x_max":909,"o":"m 909 127 l 805 0 l 539 0 l 539 365 l 636 492 l 909 492 l 909 127 m 404 616 l 307 489 l 34 489 l 34 854 l 138 981 l 404 981 l 404 616 m 90 52 l 782 987 l 861 932 l 161 -7 l 90 52 m 677 125 l 771 125 l 771 367 l 677 367 l 677 125 m 173 614 l 266 614 l 266 856 l 173 856 l 173 614 z "},"'":{"ha":239,"x_min":34,"x_max":208,"o":"m 34 686 l 34 1082 l 208 1082 l 208 686 l 34 686 z "},"(":{"ha":390,"x_min":34,"x_max":349,"o":"m 193 84 l 349 84 l 349 -102 l 170 -102 l 34 39 l 34 945 l 170 1082 l 349 1082 l 349 897 l 193 897 l 193 84 z "},")":{"ha":394,"x_min":34,"x_max":349,"o":"m 191 897 l 34 897 l 34 1082 l 214 1082 l 349 945 l 349 39 l 214 -102 l 34 -102 l 34 84 l 191 84 l 191 897 z "},"*":{"ha":627,"x_min":43,"x_max":582,"o":"m 538 892 l 582 749 l 416 705 l 530 564 l 406 473 l 317 627 l 218 473 l 95 564 l 212 705 l 43 749 l 85 892 l 245 825 l 235 1002 l 388 1002 l 375 825 l 538 892 z "},",":{"ha":300,"x_min":42,"x_max":250,"o":"m 42 0 l 42 220 l 250 220 l 250 0 l 134 -177 l 46 -117 l 122 0 l 42 0 z "},"-":{"ha":372,"x_min":34,"x_max":325,"o":"m 34 414 l 34 556 l 325 556 l 325 414 l 34 414 z "},".":{"ha":282,"x_min":34,"x_max":241,"o":"m 34 0 l 34 220 l 241 220 l 241 0 l 34 0 z "},"/":{"ha":398,"x_min":40,"x_max":351,"o":"m 147 -102 l 40 -102 l 243 1082 l 351 1082 l 147 -102 z "},":":{"ha":287,"x_min":34,"x_max":241,"o":"m 34 0 l 34 220 l 241 220 l 241 0 l 34 0 m 34 621 l 34 842 l 241 842 l 241 621 l 34 621 z "},";":{"ha":327,"x_min":43,"x_max":251,"o":"m 43 0 l 43 220 l 251 220 l 251 0 l 135 -177 l 47 -117 l 124 0 l 43 0 m 43 621 l 43 842 l 251 842 l 251 621 l 43 621 z "},"<":{"ha":765,"x_min":34,"x_max":697,"o":"m 697 128 l 697 -34 l 34 360 l 34 495 l 697 887 l 697 725 l 185 427 l 697 128 z "},"=":{"ha":736,"x_min":34,"x_max":684,"o":"m 34 402 l 684 402 l 684 267 l 34 267 l 34 402 m 34 694 l 684 694 l 684 559 l 34 559 l 34 694 z "},">":{"ha":745,"x_min":34,"x_max":697,"o":"m 34 725 l 34 887 l 697 495 l 697 360 l 34 -34 l 34 128 l 546 427 l 34 725 z "},"?":{"ha":606,"x_min":34,"x_max":559,"o":"m 233 689 l 34 689 l 34 981 l 413 981 l 559 846 l 559 570 l 393 404 l 393 282 l 208 282 l 208 459 l 357 614 l 357 800 l 233 800 l 233 689 m 201 0 l 201 191 l 400 191 l 400 0 l 201 0 z "},"@":{"ha":960,"x_min":34,"x_max":897,"o":"m 34 0 l 34 845 l 170 981 l 897 981 l 897 136 l 762 0 l 324 0 l 324 571 l 458 707 l 705 707 l 705 804 l 226 804 l 226 0 l 34 0 m 530 520 l 530 186 l 705 186 l 705 520 l 530 520 z "},"B":{"ha":682,"x_min":34,"x_max":629,"o":"m 629 408 l 629 0 l 170 0 l 34 136 l 34 981 l 454 981 l 593 851 l 593 581 l 497 504 l 629 408 m 423 186 l 423 408 l 239 408 l 239 186 l 423 186 m 390 591 l 390 794 l 239 794 l 239 591 l 390 591 z "},"C":{"ha":660,"x_min":34,"x_max":612,"o":"m 406 186 l 406 305 l 612 305 l 612 136 l 476 0 l 34 0 l 34 846 l 180 981 l 612 981 l 612 610 l 406 610 l 406 794 l 240 794 l 240 186 l 406 186 z "},"D":{"ha":662,"x_min":34,"x_max":614,"o":"m 34 981 l 456 981 l 614 825 l 614 136 l 476 0 l 34 0 l 34 981 m 408 186 l 408 794 l 239 794 l 239 186 l 408 186 z "},"E":{"ha":558,"x_min":34,"x_max":517,"o":"m 34 981 l 510 981 l 510 794 l 237 794 l 237 605 l 496 605 l 496 422 l 240 422 l 240 186 l 517 186 l 517 0 l 34 0 l 34 981 z "},"F":{"ha":554,"x_min":34,"x_max":503,"o":"m 239 422 l 239 0 l 34 0 l 34 845 l 170 981 l 503 981 l 503 794 l 239 794 l 239 605 l 482 605 l 482 422 l 239 422 z "},"G":{"ha":680,"x_min":34,"x_max":620,"o":"m 416 186 l 416 337 l 333 337 l 333 511 l 620 511 l 620 0 l 34 0 l 34 981 l 586 981 l 586 794 l 240 794 l 240 186 l 416 186 z "},"H":{"ha":675,"x_min":34,"x_max":621,"o":"m 239 578 l 416 578 l 416 981 l 621 981 l 621 0 l 416 0 l 416 392 l 239 392 l 239 0 l 34 0 l 34 981 l 239 981 l 239 578 z "},"I":{"ha":429,"x_min":34,"x_max":375,"o":"m 375 186 l 375 0 l 34 0 l 34 186 l 102 186 l 102 795 l 34 795 l 34 981 l 375 981 l 375 795 l 307 795 l 307 186 l 375 186 z "},"J":{"ha":617,"x_min":34,"x_max":559,"o":"m 34 305 l 239 305 l 239 186 l 353 186 l 353 774 l 130 774 l 130 981 l 559 981 l 559 135 l 414 0 l 34 0 l 34 305 z "},"K":{"ha":714,"x_min":34,"x_max":652,"o":"m 652 543 l 652 0 l 446 0 l 446 358 l 239 358 l 239 0 l 34 0 l 34 981 l 239 981 l 239 543 l 253 543 l 446 981 l 650 981 l 463 543 l 652 543 z "},"L":{"ha":581,"x_min":34,"x_max":527,"o":"m 34 0 l 34 981 l 239 981 l 239 186 l 527 186 l 527 0 l 34 0 z "},"M":{"ha":847,"x_min":34,"x_max":780,"o":"m 543 981 l 780 981 l 780 0 l 590 0 l 590 610 l 437 0 l 376 0 l 224 610 l 224 0 l 34 0 l 34 981 l 271 981 l 407 492 l 543 981 z "},"N":{"ha":693,"x_min":34,"x_max":631,"o":"m 437 418 l 437 981 l 631 981 l 631 0 l 427 0 l 227 563 l 227 0 l 34 0 l 34 981 l 237 981 l 437 418 z "},"O":{"ha":682,"x_min":34,"x_max":626,"o":"m 34 981 l 626 981 l 626 0 l 34 0 l 34 981 m 240 186 l 420 186 l 420 794 l 240 794 l 240 186 z "},"P":{"ha":656,"x_min":34,"x_max":603,"o":"m 239 0 l 34 0 l 34 842 l 182 981 l 603 981 l 603 249 l 239 249 l 239 0 m 397 437 l 397 794 l 239 794 l 239 437 l 397 437 z "},"Q":{"ha":682,"x_min":34,"x_max":629,"o":"m 615 -170 l 412 0 l 34 0 l 34 845 l 170 981 l 629 981 l 629 -170 l 615 -170 m 240 794 l 240 186 l 423 186 l 423 794 l 240 794 z "},"R":{"ha":664,"x_min":34,"x_max":622,"o":"m 416 0 l 294 355 l 239 355 l 239 0 l 34 0 l 34 842 l 183 981 l 603 981 l 603 357 l 492 357 l 622 0 l 416 0 m 397 538 l 397 794 l 239 794 l 239 538 l 397 538 z "},"S":{"ha":628,"x_min":34,"x_max":573,"o":"m 573 0 l 34 0 l 34 305 l 239 305 l 239 186 l 367 186 l 367 342 l 41 588 l 41 981 l 567 981 l 567 689 l 380 689 l 380 793 l 246 793 l 246 665 l 573 420 l 573 0 z "},"T":{"ha":667,"x_min":34,"x_max":618,"o":"m 618 794 l 433 794 l 433 0 l 226 0 l 226 794 l 34 794 l 34 981 l 618 981 l 618 794 z "},"U":{"ha":671,"x_min":34,"x_max":614,"o":"m 614 0 l 34 0 l 34 981 l 239 981 l 239 186 l 408 186 l 408 981 l 614 981 l 614 0 z "},"V":{"ha":675,"x_min":39,"x_max":627,"o":"m 416 981 l 627 981 l 497 0 l 172 0 l 39 981 l 253 981 l 334 227 l 416 981 z "},"W":{"ha":1025,"x_min":40,"x_max":969,"o":"m 396 0 l 209 0 l 40 981 l 240 981 l 328 396 l 433 981 l 576 981 l 681 396 l 769 981 l 969 981 l 800 0 l 613 0 l 505 608 l 396 0 z "},"X":{"ha":743,"x_min":47,"x_max":704,"o":"m 269 0 l 47 0 l 227 515 l 79 981 l 290 981 l 376 691 l 463 981 l 674 981 l 525 515 l 704 0 l 482 0 l 376 304 l 269 0 z "},"Y":{"ha":714,"x_min":47,"x_max":671,"o":"m 458 981 l 671 981 l 340 0 l 126 0 l 253 375 l 47 981 l 260 981 l 355 677 l 458 981 z "},"Z":{"ha":624,"x_min":34,"x_max":569,"o":"m 34 0 l 34 163 l 330 794 l 54 794 l 54 981 l 508 981 l 569 825 l 276 186 l 559 186 l 559 0 l 34 0 z "},"[":{"ha":350,"x_min":34,"x_max":295,"o":"m 193 84 l 295 84 l 295 -102 l 34 -102 l 34 1082 l 295 1082 l 295 897 l 193 897 l 193 84 z "},"\\":{"ha":390,"x_min":40,"x_max":351,"o":"m 148 1082 l 351 -102 l 244 -102 l 40 1082 l 148 1082 z "},"]":{"ha":339,"x_min":34,"x_max":295,"o":"m 136 897 l 34 897 l 34 1082 l 295 1082 l 295 -102 l 34 -102 l 34 84 l 136 84 l 136 897 z "},"_":{"ha":743,"x_min":34,"x_max":701,"o":"m 34 -92 l 701 -92 l 701 -230 l 34 -230 l 34 -92 z "},"`":{"ha":370,"x_min":65,"x_max":323,"o":"m 235 1244 l 323 1051 l 199 1051 l 65 1244 l 235 1244 z "},"i":{"ha":281,"x_min":34,"x_max":239,"o":"m 239 680 l 239 0 l 34 0 l 34 680 l 239 680 m 239 981 l 239 739 l 34 739 l 34 981 l 239 981 z "},"j":{"ha":613,"x_min":34,"x_max":559,"o":"m 34 305 l 239 305 l 239 186 l 353 186 l 353 692 l 559 692 l 559 135 l 414 0 l 34 0 l 34 305 m 559 981 l 559 746 l 353 746 l 353 981 l 559 981 z "},"A":{"ha":678,"x_min":34,"x_max":621,"o":"m 240 0 l 34 0 l 34 825 l 192 981 l 621 981 l 621 0 l 415 0 l 415 322 l 240 322 l 240 0 m 415 509 l 415 794 l 240 794 l 240 509 l 415 509 z "},"+":{"ha":913,"x_min":86,"x_max":826,"o":"m 86 606 l 346 606 l 346 867 l 565 867 l 565 606 l 826 606 l 826 387 l 565 387 l 565 127 l 346 127 l 346 387 l 86 387 l 86 606 z "}," ":{"ha":317,"x_min":0,"x_max":0,"o":""},"&":{"ha":913,"x_min":86,"x_max":826,"o":"m 86 606 l 346 606 l 346 867 l 565 867 l 565 606 l 826 606 l 826 387 l 346 127 l 346 387 l 86 387 l 86 606 z "},"a":{"ha":664,"x_min":34,"x_max":621,"o":"m 240 0 l 34 0 l 34 825 l 192 981 l 621 981 l 621 0 l 415 0 l 415 322 l 240 322 l 240 0 m 415 509 l 415 794 l 240 794 l 240 509 l 415 509 z "},"b":{"ha":682,"x_min":34,"x_max":629,"o":"m 629 408 l 629 0 l 170 0 l 34 136 l 34 981 l 454 981 l 593 851 l 593 581 l 497 504 l 629 408 m 423 186 l 423 408 l 239 408 l 239 186 l 423 186 m 390 591 l 390 794 l 239 794 l 239 591 l 390 591 z "},"c":{"ha":660,"x_min":34,"x_max":612,"o":"m 406 186 l 406 305 l 612 305 l 612 136 l 476 0 l 34 0 l 34 846 l 180 981 l 612 981 l 612 610 l 406 610 l 406 794 l 240 794 l 240 186 l 406 186 z "},"d":{"ha":662,"x_min":34,"x_max":614,"o":"m 34 981 l 456 981 l 614 825 l 614 136 l 476 0 l 34 0 l 34 981 m 408 186 l 408 794 l 239 794 l 239 186 l 408 186 z "},"e":{"ha":558,"x_min":34,"x_max":517,"o":"m 34 981 l 510 981 l 510 794 l 237 794 l 237 605 l 496 605 l 496 422 l 240 422 l 240 186 l 517 186 l 517 0 l 34 0 l 34 981 z "},"f":{"ha":554,"x_min":34,"x_max":503,"o":"m 239 422 l 239 0 l 34 0 l 34 845 l 170 981 l 503 981 l 503 794 l 239 794 l 239 605 l 482 605 l 482 422 l 239 422 z "},"g":{"ha":680,"x_min":34,"x_max":620,"o":"m 416 186 l 416 337 l 333 337 l 333 511 l 620 511 l 620 0 l 34 0 l 34 981 l 586 981 l 586 794 l 240 794 l 240 186 l 416 186 z "},"h":{"ha":675,"x_min":34,"x_max":621,"o":"m 239 578 l 416 578 l 416 981 l 621 981 l 621 0 l 416 0 l 416 392 l 239 392 l 239 0 l 34 0 l 34 981 l 239 981 l 239 578 z "},"k":{"ha":714,"x_min":34,"x_max":652,"o":"m 652 543 l 652 0 l 446 0 l 446 358 l 239 358 l 239 0 l 34 0 l 34 981 l 239 981 l 239 543 l 253 543 l 446 981 l 650 981 l 463 543 l 652 543 z "},"l":{"ha":581,"x_min":34,"x_max":527,"o":"m 34 0 l 34 981 l 239 981 l 239 186 l 527 186 l 527 0 l 34 0 z "},"m":{"ha":847,"x_min":34,"x_max":780,"o":"m 543 981 l 780 981 l 780 0 l 590 0 l 590 610 l 437 0 l 376 0 l 224 610 l 224 0 l 34 0 l 34 981 l 271 981 l 407 492 l 543 981 z "},"n":{"ha":693,"x_min":34,"x_max":631,"o":"m 437 418 l 437 981 l 631 981 l 631 0 l 427 0 l 227 563 l 227 0 l 34 0 l 34 981 l 237 981 l 437 418 z "},"o":{"ha":682,"x_min":34,"x_max":626,"o":"m 34 981 l 626 981 l 626 0 l 34 0 l 34 981 m 240 186 l 420 186 l 420 794 l 240 794 l 240 186 z "},"p":{"ha":656,"x_min":34,"x_max":603,"o":"m 239 0 l 34 0 l 34 842 l 182 981 l 603 981 l 603 249 l 239 249 l 239 0 m 397 437 l 397 794 l 239 794 l 239 437 l 397 437 z "},"q":{"ha":682,"x_min":34,"x_max":629,"o":"m 615 -170 l 412 0 l 34 0 l 34 845 l 170 981 l 629 981 l 629 -170 l 615 -170 m 240 794 l 240 186 l 423 186 l 423 794 l 240 794 z "},"r":{"ha":664,"x_min":34,"x_max":622,"o":"m 416 0 l 294 355 l 239 355 l 239 0 l 34 0 l 34 842 l 183 981 l 603 981 l 603 357 l 492 357 l 622 0 l 416 0 m 397 538 l 397 794 l 239 794 l 239 538 l 397 538 z "},"s":{"ha":628,"x_min":34,"x_max":573,"o":"m 573 0 l 34 0 l 34 305 l 239 305 l 239 186 l 367 186 l 367 342 l 41 588 l 41 981 l 567 981 l 567 689 l 380 689 l 380 793 l 246 793 l 246 665 l 573 420 l 573 0 z "},"t":{"ha":667,"x_min":34,"x_max":618,"o":"m 618 794 l 433 794 l 433 0 l 226 0 l 226 794 l 34 794 l 34 981 l 618 981 l 618 794 z "},"u":{"ha":671,"x_min":34,"x_max":614,"o":"m 614 0 l 34 0 l 34 981 l 239 981 l 239 186 l 408 186 l 408 981 l 614 981 l 614 0 z "},"v":{"ha":675,"x_min":39,"x_max":627,"o":"m 416 981 l 627 981 l 497 0 l 172 0 l 39 981 l 253 981 l 334 227 l 416 981 z "},"w":{"ha":1025,"x_min":40,"x_max":969,"o":"m 396 0 l 209 0 l 40 981 l 240 981 l 328 396 l 433 981 l 576 981 l 681 396 l 769 981 l 969 981 l 800 0 l 613 0 l 505 608 l 396 0 z "},"x":{"ha":743,"x_min":47,"x_max":704,"o":"m 269 0 l 47 0 l 227 515 l 79 981 l 290 981 l 376 691 l 463 981 l 674 981 l 525 515 l 704 0 l 482 0 l 376 304 l 269 0 z "},"y":{"ha":714,"x_min":47,"x_max":671,"o":"m 458 981 l 671 981 l 340 0 l 126 0 l 253 375 l 47 981 l 260 981 l 355 677 l 458 981 z "},"z":{"ha":624,"x_min":34,"x_max":569,"o":"m 34 0 l 34 163 l 330 794 l 54 794 l 54 981 l 508 981 l 569 825 l 276 186 l 559 186 l 559 0 l 34 0 z "},"!":{"ha":259,"x_min":34,"x_max":238,"o":"m 238 981 l 238 837 l 193 282 l 79 282 l 34 837 l 34 981 l 238 981 m 43 0 l 43 191 l 229 191 l 229 0 l 43 0 z "}}}
